<svg width="31" height="29" viewBox="0 0 31 29" fill="none" xmlns="http://www.w3.org/2000/svg">
<path d="M4.84011 21.8327L5.12211 21.4198L4.84011 21.8327C4.89476 21.87 4.95578 21.9047 4.99271 21.9256C4.9992 21.9293 5.00494 21.9325 5.00978 21.9353L5.25881 21.5018L5.00978 21.9353C5.16268 22.0231 5.86627 22.4797 6.39976 23.7611C6.40581 23.7756 6.41001 23.7875 6.42271 23.8216C6.4961 24.0184 6.77331 24.6624 7.45256 25.2398C8.14394 25.8274 9.21596 26.3147 10.8136 26.2339C11.2163 26.2136 11.5085 26.5047 11.5114 26.8002C11.5129 26.9615 11.5144 27.1111 11.5158 27.2478C11.5196 27.6268 11.5224 27.9071 11.5224 28.0657C11.5224 28.1384 11.4968 28.1926 11.4667 28.222C11.4465 28.2416 11.374 28.3008 11.1617 28.2825C11.1545 28.2819 11.1377 28.2792 11.1075 28.2694C5.28562 26.371 1.08069 21.0602 1.08069 14.8641C1.08069 7.09663 7.68368 0.707886 15.7907 0.707886C23.8977 0.707886 30.5007 7.09663 30.5007 14.8641C30.5007 21.061 26.2964 26.3691 20.4747 28.2721C20.4456 28.2816 20.4291 28.2844 20.4219 28.2851C20.2054 28.3057 20.1344 28.2457 20.1163 28.2281C20.0877 28.2001 20.0608 28.1454 20.0608 28.0675C20.0608 27.9097 20.0629 27.6328 20.0657 27.2601C20.0671 27.0691 20.0687 26.8529 20.0703 26.6147C20.0751 25.914 20.0799 25.0279 20.0799 24.0462C20.0799 23.8058 20.066 23.577 20.0399 23.3598C20.0015 23.04 20.0907 22.5689 20.2996 22.1416C20.5146 21.7017 20.7882 21.4429 21.0132 21.3772C22.3347 20.9914 23.5939 20.3297 24.5187 19.1564C25.4453 17.9806 25.9927 16.3464 25.9927 14.0983C25.9927 12.635 25.5368 11.3851 24.7527 10.3589C24.6091 10.1711 24.5543 9.90752 24.6116 9.64903C24.7649 8.9582 24.8467 7.87986 24.4166 6.5731L23.9417 6.7294L24.4166 6.5731C24.2689 6.12432 23.8543 5.72741 23.2833 5.75671C22.6175 5.79088 21.4531 6.05365 19.7152 7.12297C19.5857 7.20259 19.4278 7.22836 19.279 7.19383C18.1517 6.93231 16.9667 6.80099 15.7928 6.79598L15.7885 6.79599C14.6132 6.80099 13.4297 6.93225 12.3042 7.1937C12.1553 7.22829 11.9973 7.20256 11.8678 7.12297C10.1283 6.05338 8.96266 5.79077 8.29637 5.75669C7.72535 5.72749 7.31049 6.12431 7.16276 6.57343C6.73186 7.88347 6.81599 8.96391 6.97049 9.65491C7.02787 9.91156 6.97374 10.1728 6.83146 10.3593C6.04826 11.3858 5.5867 12.6358 5.5867 14.1001C5.5867 16.5042 6.21513 18.2062 7.25939 19.3957C8.29798 20.5788 9.69589 21.1953 11.1219 21.534C11.2603 21.5669 11.4356 21.7038 11.5647 21.9586C11.6925 22.2106 11.7224 22.4785 11.6732 22.6578C11.6514 22.7374 11.6106 22.8295 11.5604 22.9015C11.5154 22.9661 11.4864 22.9819 11.4866 22.9824C11.0192 23.138 10.4048 23.2565 9.79399 23.139C9.2035 23.0254 8.57451 22.6843 8.05669 21.8351L8.05666 21.8351L8.0459 21.8171C7.99343 21.7294 7.74768 21.3375 7.31138 20.9476C6.87433 20.5569 6.22068 20.1463 5.36161 20.0782L5.3616 20.0782C5.33055 20.0757 5.29635 20.0741 5.25899 20.0747C5.1995 20.0756 5.06855 20.0801 4.92351 20.1026C4.79833 20.122 4.5772 20.1662 4.39745 20.2944C4.298 20.3654 4.17951 20.4848 4.12718 20.6679C4.07342 20.8559 4.1117 21.0326 4.17806 21.1707C4.29513 21.4145 4.54136 21.6287 4.84011 21.8327Z" stroke="#D9D9D9"/>
</svg>
