<svg width="29" height="27" viewBox="0 0 29 27" fill="none" xmlns="http://www.w3.org/2000/svg">
<path d="M0.574829 5.5154C0.574829 2.87882 2.85055 0.693359 5.72425 0.693359H22.6725C25.5462 0.693359 27.8219 2.87882 27.8219 5.5154V21.4815C27.8219 24.1181 25.5462 26.3036 22.6725 26.3036H5.72425C2.85055 26.3036 0.574829 24.1181 0.574829 21.4815V5.5154ZM25.9972 4.18489C25.9972 3.14661 25.1121 2.35438 24.0849 2.35438C23.0577 2.35438 22.1725 3.1466 22.1725 4.18489C22.1725 5.22318 23.0577 6.0154 24.0849 6.0154C25.1121 6.0154 25.9972 5.22317 25.9972 4.18489ZM23.1725 13.4985C23.1725 8.78531 19.1265 5.0154 14.1984 5.0154C9.27024 5.0154 5.22425 8.78531 5.22425 13.4985C5.22425 18.2116 9.27024 21.9815 14.1984 21.9815C19.1265 21.9815 23.1725 18.2116 23.1725 13.4985ZM10.5465 10.0992C11.5102 9.19127 12.8234 8.67642 14.1984 8.67642C15.5734 8.67642 16.8866 9.19127 17.8503 10.0992C18.813 11.0061 19.3478 12.2295 19.3478 13.4985C19.3478 14.7674 18.813 15.9908 17.8503 16.8978C16.8866 17.8056 15.5734 18.3205 14.1984 18.3205C12.8234 18.3205 11.5102 17.8056 10.5465 16.8978C9.58378 15.9908 9.04896 14.7674 9.04896 13.4985C9.04896 12.2295 9.58378 11.0061 10.5465 10.0992Z" stroke="#D9D9D9"/>
</svg>
