<svg width="32" height="25" viewBox="0 0 32 25" fill="none" xmlns="http://www.w3.org/2000/svg">
<path d="M1.4795 21.279L1.47951 21.279C1.58039 21.1665 1.72828 21.1014 1.88995 21.1032C3.0968 21.1172 6.47094 21.0618 8.89472 20.0462C9.44673 19.8149 9.70209 19.3147 9.68302 18.8152C9.66471 18.3357 9.39952 17.8632 8.95557 17.5767C6.3251 15.8793 2.36132 12.0842 2.36132 6.44091C2.36132 4.52878 2.8576 2.69101 3.10327 1.90083C3.13885 1.7864 3.2273 1.68673 3.35571 1.63175L3.70323 1.48293C3.9005 1.39846 4.13453 1.44928 4.28357 1.61477C7.19752 4.8502 10.3654 7.54392 15.0936 8.17786C15.6111 8.24724 16.0599 8.03159 16.3615 7.70108C16.6577 7.37634 16.8271 6.92904 16.8195 6.47044C16.8191 6.44159 16.8188 6.4127 16.8188 6.38377C16.8188 3.26064 19.5618 0.664551 23.0238 0.664551C24.6596 0.664551 26.1418 1.24241 27.2421 2.18628C27.5447 2.44589 28.0013 2.65333 28.5007 2.52316C29.5016 2.26228 30.7179 1.58833 31.2789 1.25984C31.3144 1.23905 31.3523 1.24469 31.3752 1.26206C31.3949 1.27702 31.3987 1.29402 31.3985 1.30169C31.3457 2.9585 30.7958 4.32533 29.6421 5.65214C29.3803 5.95317 29.2364 6.34359 29.2488 6.74816C29.2524 6.86572 29.2543 6.98348 29.2543 7.1008C29.2543 11.5771 27.6124 15.8738 24.4827 19.0498C21.3571 22.2216 16.7199 24.3036 10.6752 24.3036C6.06624 24.3036 2.90941 22.7564 1.51596 21.9009C1.32834 21.7857 1.26802 21.5149 1.46376 21.2966C1.46376 21.2966 1.46376 21.2966 1.46377 21.2966L1.4795 21.279Z" stroke="#D9D9D9"/>
</svg>
