<svg width="31" height="29" viewBox="0 0 31 29" fill="none" xmlns="http://www.w3.org/2000/svg">
<path d="M0.5 14.5704C0.5 6.94145 7.05902 0.707886 15.21 0.707886C23.361 0.707886 29.92 6.94145 29.92 14.5704C29.92 21.3802 24.6908 27.063 17.7671 28.2104V19.3782C17.7671 19.1021 17.991 18.8782 18.2671 18.8782H20.3534C21.0881 18.8782 21.7147 18.3461 21.8336 17.6211L22.1253 15.8438C22.2751 14.9306 21.5704 14.1009 20.6451 14.1009H18.2671C17.991 14.1009 17.7671 13.877 17.7671 13.6009V12.5399C17.7671 11.7988 17.8981 11.1628 18.1615 10.7292C18.4051 10.3282 18.7712 10.0776 19.3661 10.0776H20.8605C21.689 10.0776 22.3606 9.40603 22.3606 8.57761V7.16581C22.3606 6.41562 21.7999 5.75417 21.0232 5.6889C20.485 5.64366 19.7442 5.60368 18.7406 5.60368C16.8348 5.60368 15.2358 6.07952 14.1153 7.17981C12.9931 8.28177 12.4342 9.92809 12.4342 12.0892V13.5991C12.4342 13.8752 12.2103 14.0991 11.9342 14.0991H10.1716C9.34319 14.0991 8.67162 14.7707 8.67162 15.5991V17.3764C8.67162 18.2048 9.34319 18.8764 10.1716 18.8764H11.9342C12.2103 18.8764 12.4342 19.1003 12.4342 19.3764V27.6027C12.4342 27.918 12.1636 28.1191 11.9054 28.0631C5.35463 26.6438 0.5 21.1328 0.5 14.5704Z" stroke="#D9D9D9"/>
</svg>
