<svg width="34" height="33" viewBox="0 0 34 33" fill="none" xmlns="http://www.w3.org/2000/svg">
<path d="M16.5917 5.625C16.2649 5.625 15.9946 5.51875 15.7809 5.30625C15.5673 5.09375 15.4604 4.825 15.4604 4.5V1.125C15.4604 0.8 15.5673 0.53125 15.7809 0.31875C15.9946 0.10625 16.2649 0 16.5917 0C16.9185 0 17.1887 0.10625 17.4024 0.31875C17.6161 0.53125 17.7229 0.8 17.7229 1.125V4.5C17.7229 4.825 17.6161 5.09375 17.4024 5.30625C17.1887 5.51875 16.9185 5.625 16.5917 5.625ZM24.3219 8.8125C24.0956 8.5875 23.9825 8.325 23.9825 8.025C23.9825 7.725 24.0956 7.4625 24.3219 7.2375L26.6975 4.8375C26.9238 4.6125 27.194 4.5 27.5082 4.5C27.8225 4.5 28.0927 4.6125 28.319 4.8375C28.5452 5.0625 28.6583 5.325 28.6583 5.625C28.6583 5.925 28.5452 6.1875 28.319 6.4125L25.9056 8.8125C25.6794 9.0375 25.4154 9.15 25.1137 9.15C24.8121 9.15 24.5481 9.0375 24.3219 8.8125ZM28.6583 17.625C28.3315 17.625 28.0613 17.5188 27.8476 17.3063C27.6339 17.0938 27.5271 16.825 27.5271 16.5C27.5271 16.175 27.6339 15.9062 27.8476 15.6937C28.0613 15.4812 28.3315 15.375 28.6583 15.375H32.0521C32.3789 15.375 32.6491 15.4812 32.8628 15.6937C33.0765 15.9062 33.1833 16.175 33.1833 16.5C33.1833 16.825 33.0765 17.0938 32.8628 17.3063C32.6491 17.5188 32.3789 17.625 32.0521 17.625H28.6583ZM16.5917 33C16.2649 33 15.9946 32.8937 15.7809 32.6813C15.5673 32.4688 15.4604 32.2 15.4604 31.875V28.5C15.4604 28.175 15.5673 27.9062 15.7809 27.6937C15.9946 27.4812 16.2649 27.375 16.5917 27.375C16.9185 27.375 17.1887 27.4812 17.4024 27.6937C17.6161 27.9062 17.7229 28.175 17.7229 28.5V31.875C17.7229 32.2 17.6161 32.4688 17.4024 32.6813C17.1887 32.8937 16.9185 33 16.5917 33ZM7.27771 8.8125L4.86437 6.45C4.63812 6.225 4.525 5.95625 4.525 5.64375C4.525 5.33125 4.63812 5.0625 4.86437 4.8375C5.09062 4.6125 5.35458 4.5 5.65625 4.5C5.95792 4.5 6.22188 4.6125 6.44812 4.8375L8.86146 7.2375C9.08771 7.4625 9.20083 7.725 9.20083 8.025C9.20083 8.325 9.08771 8.5875 8.86146 8.8125C8.63521 9.0125 8.36497 9.1125 8.05073 9.1125C7.73649 9.1125 7.47882 9.0125 7.27771 8.8125ZM26.7352 28.1625L24.3219 25.7625C24.0956 25.5375 23.9825 25.275 23.9825 24.975C23.9825 24.675 24.0956 24.4125 24.3219 24.1875C24.523 23.9875 24.7807 23.8875 25.0949 23.8875C25.4091 23.8875 25.6794 23.9875 25.9056 24.1875L28.3567 26.55C28.5829 26.775 28.6898 27.0437 28.6772 27.3562C28.6646 27.6687 28.5578 27.9375 28.3567 28.1625C28.1304 28.3875 27.8602 28.5 27.5459 28.5C27.2317 28.5 26.9615 28.3875 26.7352 28.1625ZM1.13125 17.625C0.804444 17.625 0.534201 17.5188 0.320521 17.3063C0.10684 17.0938 0 16.825 0 16.5C0 16.175 0.10684 15.9062 0.320521 15.6937C0.534201 15.4812 0.804444 15.375 1.13125 15.375H4.525C4.85181 15.375 5.12205 15.4812 5.33573 15.6937C5.54941 15.9062 5.65625 16.175 5.65625 16.5C5.65625 16.825 5.54941 17.0938 5.33573 17.3063C5.12205 17.5188 4.85181 17.625 4.525 17.625H1.13125ZM4.86437 28.1625C4.63812 27.9375 4.525 27.675 4.525 27.375C4.525 27.075 4.63812 26.8125 4.86437 26.5875L7.27771 24.1875C7.47882 23.9875 7.73649 23.8875 8.05073 23.8875C8.36497 23.8875 8.63521 23.9875 8.86146 24.1875C9.08771 24.4125 9.20083 24.6813 9.20083 24.9938C9.20083 25.3062 9.08771 25.575 8.86146 25.8L6.48583 28.1625C6.25958 28.3875 5.98934 28.5 5.6751 28.5C5.36087 28.5 5.09062 28.3875 4.86437 28.1625ZM16.5917 25.5C14.0778 25.5 11.941 24.625 10.1812 22.875C8.42153 21.125 7.54167 19 7.54167 16.5C7.54167 14 8.42153 11.875 10.1812 10.125C11.941 8.375 14.0778 7.5 16.5917 7.5C19.1056 7.5 21.2424 8.375 23.0021 10.125C24.7618 11.875 25.6417 14 25.6417 16.5C25.6417 19 24.7618 21.125 23.0021 22.875C21.2424 24.625 19.1056 25.5 16.5917 25.5ZM16.5917 23.25C18.4771 23.25 20.0797 22.5938 21.3995 21.2812C22.7193 19.9688 23.3792 18.375 23.3792 16.5C23.3792 14.625 22.7193 13.0312 21.3995 11.7188C20.0797 10.4062 18.4771 9.75 16.5917 9.75C14.7063 9.75 13.1036 10.4062 11.7839 11.7188C10.4641 13.0312 9.80417 14.625 9.80417 16.5C9.80417 18.375 10.4641 19.9688 11.7839 21.2812C13.1036 22.5938 14.7063 23.25 16.5917 23.25Z" fill="white"/>
</svg>
