<?xml version="1.0" encoding="UTF-8"?>
<!DOCTYPE svg PUBLIC "-//W3C//DTD SVG 1.1//EN" "http://www.w3.org/Graphics/SVG/1.1/DTD/svg11.dtd">
<!-- Creator: CorelDRAW 2019 (64-Bit) -->
<svg xmlns="http://www.w3.org/2000/svg" xml:space="preserve" width="42.3332mm" height="42.3332mm" version="1.1" style="shape-rendering:geometricPrecision; text-rendering:geometricPrecision; image-rendering:optimizeQuality; fill-rule:evenodd; clip-rule:evenodd"
viewBox="0 0 4233.32 4233.32"
 xmlns:xlink="http://www.w3.org/1999/xlink">
 <defs>
  <style type="text/css">
   <![CDATA[
    .fil0 {fill:#3DAFD3}
    .fil1 {fill:white}
   ]]>
  </style>
 </defs>
 <g id="Capa_x0020_1">
  <metadata id="CorelCorpID_0Corel-Layer"/>
  <g id="_2460894685696">
   <path class="fil0" d="M508.77 482.84l1607.89 0c884.34,0 1607.89,723.55 1607.89,1607.89l0 51.87c0,884.34 -723.55,1607.89 -1607.89,1607.89l-1607.89 0 0 -3267.65z"/>
   <g>
    <path class="fil1" d="M2631.24 3665.53c-161.73,55.06 -334.83,84.96 -514.58,84.96l-755.15 0 0 -719.98c0,-349.18 285.69,-634.87 634.86,-634.87l0.01 0c349.18,0 634.86,285.69 634.86,634.87l0 635.02z"/>
    <path class="fil1" d="M1995.1 951.72c357.08,0 646.55,289.47 646.55,646.55 0,357.08 -289.47,646.55 -646.55,646.55 -357.08,0 -646.55,-289.47 -646.55,-646.55 0,-357.08 289.47,-646.55 646.55,-646.55z"/>
   </g>
  </g>
 </g>
</svg>
