<svg width="204" height="58" viewBox="0 0 204 58" fill="none" xmlns="http://www.w3.org/2000/svg">
<path fill-rule="evenodd" clip-rule="evenodd" d="M0 0H25.5681C39.6305 0 51.1362 11.4759 51.1362 25.5019V26.3245C51.1362 40.3505 39.6305 51.8264 25.5681 51.8264H0V0Z" fill="#00C1FE"/>
<path fill-rule="evenodd" clip-rule="evenodd" d="M33.7507 50.479C31.1789 51.3521 28.4264 51.8264 25.5681 51.8264H13.56V40.4071C13.56 34.869 18.1029 30.3379 23.6553 30.3379C29.2078 30.3379 33.7507 34.869 33.7507 40.4071V50.479Z" fill="white"/>
<path fill-rule="evenodd" clip-rule="evenodd" d="M23.6351 7.43652C29.3131 7.43652 33.9162 12.0277 33.9162 17.6913C33.9162 23.3546 29.3131 27.9458 23.6351 27.9458C17.9568 27.9458 13.3537 23.3546 13.3537 17.6913C13.3537 12.0277 17.9568 7.43652 23.6351 7.43652Z" fill="white"/>
<path d="M165.339 28.2919V28.7773V45.4309C165.339 49.2615 164.555 52.0763 163.012 53.8825C160.929 56.3198 157.801 57.5491 153.61 57.5491C151.383 57.5491 149.506 57.2715 147.978 56.7161C146.458 56.1609 145.173 55.3419 144.131 54.2596C143.67 53.7876 143.261 53.2702 142.906 52.7074L148.121 50.3295C148.678 50.9631 149.399 51.4403 150.284 51.7678C151.162 52.0881 152.204 52.2518 153.411 52.2518C154.952 52.2518 156.187 52.0169 157.123 51.547C158.065 51.077 158.721 50.472 159.107 49.7315C159.412 49.1397 159.597 48.2129 159.66 46.9481C159.296 47.2139 158.914 47.4606 158.514 47.688C156.665 48.7347 154.638 49.2615 152.418 49.2615C149.148 49.2615 146.357 48.1081 144.051 45.8013C141.738 43.4872 140.582 40.682 140.582 37.3855C140.582 33.8468 141.888 30.8993 144.501 28.5424C146.792 26.4918 149.42 25.4667 152.396 25.4667L152.426 25.4669L152.447 25.4667C152.617 25.4667 152.785 25.4708 152.953 25.4787C154.895 25.5635 156.729 26.0933 158.457 27.0687C158.9 27.3179 159.319 27.5875 159.716 27.8779C159.918 26.5214 161.098 25.4724 162.512 25.4724C164.067 25.4724 165.339 26.741 165.339 28.2919ZM152.524 30.4625C150.543 30.4625 148.897 31.1048 147.585 32.3894C146.272 33.6817 145.612 35.3249 145.612 37.3343C145.612 39.3958 146.264 41.069 147.561 42.3463C148.857 43.6234 150.504 44.2659 152.5 44.2659C154.488 44.2659 156.143 43.6159 157.471 42.3238C158.791 41.0317 159.452 39.3658 159.452 37.3343C159.452 35.2951 158.799 33.6445 157.503 32.3671C156.206 31.0973 154.544 30.4625 152.524 30.4625ZM132.019 34.5232C131.641 33.2843 130.898 32.2732 129.792 31.4972C128.678 30.7213 127.393 30.3368 125.923 30.3368C124.331 30.3368 122.939 30.771 121.732 31.6468C120.983 32.188 120.283 33.149 119.641 34.5232H132.019ZM137.694 38.9661H119.384C119.648 40.5824 120.355 41.8711 121.497 42.8322C122.639 43.7862 124.102 44.2634 125.873 44.2634C128 44.2634 129.82 43.5159 131.348 42.0205L136.131 44.2775C134.939 45.9721 133.504 47.2253 131.841 48.044C130.17 48.8557 128.193 49.2615 125.901 49.2615C122.347 49.2615 119.448 48.1436 117.214 45.9009C114.98 43.6652 113.859 40.86 113.859 37.4923C113.859 34.0392 114.98 31.1698 117.214 28.8914C119.448 26.6058 122.246 25.4667 125.623 25.4667C129.199 25.4667 132.112 26.6058 134.353 28.8771C136.595 31.1555 137.716 34.1531 137.716 37.8909L137.694 38.9661ZM105.251 28.4365H110.948V49.2684H105.251V28.4365ZM108.1 25.4728C109.666 25.4728 110.948 26.7801 110.948 28.378V32.1273H105.251V28.378C105.251 26.7801 106.533 25.4728 108.1 25.4728ZM180.251 25.4064C186.896 25.4064 192.282 30.779 192.282 37.4066C192.282 44.034 186.896 49.4068 180.251 49.4068C173.606 49.4068 168.22 44.034 168.22 37.4066C168.22 30.779 173.606 25.4064 180.251 25.4064ZM180.243 30.5048C178.262 30.5048 176.616 31.1471 175.304 32.4319C173.991 33.7243 173.331 35.3674 173.331 37.3766C173.331 39.4383 173.983 41.1113 175.28 42.3886C176.576 43.6659 178.223 44.3082 180.219 44.3082C182.207 44.3082 183.862 43.6584 185.19 42.3663C186.51 41.074 187.171 39.4083 187.171 37.3766C187.171 35.3376 186.518 33.6867 185.222 32.4096C183.926 31.1398 182.263 30.5048 180.243 30.5048ZM102.401 31.8065C102.401 29.3521 101.952 27.0634 101.055 24.9408C100.157 22.8179 98.8847 20.9772 97.2387 19.4181C95.5926 17.8593 93.6306 16.6405 91.3527 15.7615C89.075 14.8825 86.5725 14.443 83.8457 14.443H70.8267V49.2693H83.8457C86.5725 49.2693 89.075 48.8216 91.3527 47.926C93.6306 47.0304 95.5926 45.8034 97.2387 44.2443C98.8847 42.6855 100.157 40.8364 101.055 38.6971C101.952 36.5576 102.401 34.2608 102.401 31.8065ZM95.9667 31.906C95.9667 33.639 95.6758 35.231 95.0938 36.6738C94.5119 38.1249 93.6887 39.3769 92.6413 40.4217C91.5939 41.4748 90.3134 42.2874 88.8172 42.8763C87.3124 43.4567 85.6498 43.7469 83.8125 43.7469H76.9123V19.9654H83.8125C85.6498 19.9654 87.3124 20.2639 88.8172 20.861C90.3134 21.4665 91.5939 22.2956 92.6413 23.3652C93.6887 24.4265 94.5119 25.687 95.0938 27.138C95.6758 28.5809 95.9667 30.1729 95.9667 31.906ZM108.092 16.4893C109.21 16.4893 110.169 16.8958 110.968 17.7004C111.775 18.5053 112.174 19.4775 112.174 20.6248C112.174 21.7563 111.775 22.7206 110.984 23.5173C110.193 24.3142 109.242 24.7125 108.132 24.7125C106.997 24.7125 106.031 24.3062 105.232 23.4934C104.425 22.6806 104.025 21.6927 104.025 20.5293C104.025 19.4136 104.425 18.4655 105.216 17.6765C106.007 16.8878 106.965 16.4893 108.092 16.4893ZM199.429 41.0628C200.547 41.0628 201.506 41.4694 202.305 42.274C203.112 43.0789 203.511 44.0511 203.511 45.1986C203.511 46.3299 203.112 47.2942 202.321 48.0908C201.53 48.8877 200.579 49.2861 199.469 49.2861C198.334 49.2861 197.368 48.8798 196.569 48.067C195.762 47.2541 195.363 46.2663 195.363 45.1028C195.363 43.9872 195.762 43.0391 196.553 42.2501C197.344 41.4614 198.303 41.0628 199.429 41.0628Z" fill="white"/>
</svg>
