<svg width="354" height="153" viewBox="0 0 354 153" fill="none" xmlns="http://www.w3.org/2000/svg">
<path fill-rule="evenodd" clip-rule="evenodd" d="M0 0H54.5C84.4749 0 109 24.5787 109 54.6191V56.3809C109 86.4213 84.4749 111 54.5 111H0V0Z" fill="white"/>
<path fill-rule="evenodd" clip-rule="evenodd" d="M73 108.928C67.0134 110.918 60.6061 112 53.9525 112H26V85.9607C26 73.3322 36.575 63 49.4999 63C62.425 63 73 73.3322 73 85.9607V108.928Z" fill="#17191C"/>
<path fill-rule="evenodd" clip-rule="evenodd" d="M49.5002 35C58.6127 35 66 42.1635 66 51.0002C66 59.8365 58.6127 67 49.5002 67C40.3873 67 33 59.8365 33 51.0002C33 42.1635 40.3873 35 49.5002 35Z" fill="#17191C"/>
<path d="M148.49 63.7C160.15 41.59 175.55 18.16 186.66 8.58999C189.41 6.28 195.57 1 202.06 3.86C208.11 6.60999 210.2 14.53 210.86 19.04C212.29 28.39 211.08 37.85 209.98 44.23C203.93 79.65 186.33 110.12 162.9 125.74C155.64 130.47 149.04 133.11 142.66 133.66C141.89 133.77 141.12 133.77 140.24 133.77C133.2 133.77 126.49 131.02 121.65 126.07C116.81 121.01 114.06 113.97 114.5 107.15C114.72 103.52 115.71 100 117.58 96.7C118.35 95.38 120.11 94.83 121.54 95.71C122.97 96.48 123.41 98.24 122.64 99.67C121.21 102.09 120.44 104.73 120.22 107.48C120 112.65 122.09 118.15 125.83 122C130.01 126.29 135.95 128.49 142.22 127.94C147.5 127.39 153.22 125.19 159.71 120.9C181.82 106.16 198.54 77.12 204.26 43.24C205.25 37.3 206.46 28.39 205.14 19.92C204.26 14.42 202.17 10.24 199.64 9.13999C197.55 8.14999 194.8 9.36 190.51 12.99C174.67 26.52 149.26 70.63 140.46 95.6C140.24 96.59 140.02 97.69 139.8 98.79C139.58 100.11 138.37 101.1 137.05 101.1C136.83 101.1 136.61 101.1 136.39 100.99C134.85 100.77 133.86 99.23 134.19 97.58C134.19 97.58 134.19 97.58 134.19 97.47C134.08 96.92 134.08 96.48 134.19 95.93C134.41 95.27 134.63 94.72 134.85 94.06C139.8 70.19 146.95 47.09 156.19 25.31C156.74 23.77 158.5 23.11 159.93 23.77C161.47 24.43 162.13 26.08 161.47 27.51C156.52 39.28 152.23 51.38 148.49 63.7ZM244.644 76.68C245.964 77.56 246.294 79.32 245.414 80.75C241.894 86.14 239.144 90.1 235.734 94.61C231.884 99.78 227.154 105.61 221.104 109.79C218.574 111.44 216.264 112.32 214.064 112.32C213.074 112.32 212.194 112.1 211.204 111.77C209.444 111 208.124 109.68 207.354 107.7C204.824 101.32 208.014 88.67 217.144 69.09C217.804 67.66 219.454 67 220.994 67.66C222.424 68.32 223.084 70.08 222.424 71.51C211.094 95.82 211.864 103.41 212.744 105.5C213.074 106.27 213.294 106.27 213.404 106.38C214.394 106.71 215.934 106.27 217.804 104.95C223.194 101.32 227.484 95.93 231.114 91.09C234.414 86.69 237.164 82.84 240.574 77.56C241.454 76.24 243.324 75.8 244.644 76.68ZM227.044 50.83C225.504 50.28 224.844 48.52 225.394 47.09C226.714 43.79 228.144 40.6 229.684 37.63C230.344 36.2 232.104 35.65 233.534 36.31C234.964 37.08 235.514 38.84 234.854 40.27C233.314 43.13 231.994 46.1 230.784 49.18C230.344 50.39 229.244 51.05 228.034 51.05C227.704 51.05 227.374 50.94 227.044 50.83ZM276.109 76.46C277.319 77.67 277.319 79.43 276.109 80.64C275.229 81.52 274.239 82.51 273.359 83.39C264.339 92.52 254.219 102.75 245.529 103.63C245.309 103.63 244.979 103.63 244.759 103.63C242.889 103.63 241.129 102.97 239.919 101.65C238.599 100.33 237.719 98.24 237.389 95.71C237.059 93.51 237.059 91.09 237.389 88.34C238.379 80.97 241.129 74.26 245.309 69.53C248.169 66.34 251.359 64.58 254.439 64.8C256.089 64.8 257.519 65.46 258.619 66.56C260.049 67.88 260.709 69.97 260.269 71.95C260.049 73.16 259.389 74.26 258.399 75.25C255.649 77.78 250.809 78 247.179 76.79C245.199 80.2 243.769 84.49 243.219 89.11C242.889 91.31 242.889 93.18 243.109 94.94C243.329 96.81 243.879 97.47 244.099 97.58C244.319 97.91 244.649 97.91 244.979 97.91C251.579 97.25 261.809 86.91 269.179 79.32C270.169 78.33 271.159 77.45 272.039 76.46C273.139 75.36 275.009 75.36 276.109 76.46ZM254.109 70.52C253.339 70.52 252.459 70.96 251.359 71.73C252.679 71.73 253.889 71.51 254.439 70.96C254.549 70.85 254.659 70.74 254.659 70.74L254.549 70.63C254.549 70.63 254.439 70.52 254.109 70.52ZM314.744 76.79C315.844 78 315.734 79.87 314.524 80.86C301.984 92.08 292.084 102.97 284.384 112.65C280.754 124.2 276.794 134.76 273.384 140.26C270.744 144.44 267.004 149.61 261.724 152.03C261.174 152.25 260.734 152.36 260.184 152.36C259.084 152.36 258.094 151.81 257.544 150.93C256.774 149.72 256.114 147.85 259.304 140.92C260.734 137.73 263.484 132.23 268.434 124.64C271.184 120.46 274.704 115.4 279.214 109.79C281.304 102.97 283.614 95.16 285.924 86.58C285.704 87.02 285.484 87.46 285.264 87.9C283.394 92.08 281.524 96.37 278.664 99.89C276.794 102.2 274.924 102.75 273.494 102.75C272.834 102.75 272.174 102.64 271.844 102.53C269.424 101.76 267.774 99.67 267.114 96.7C265.464 89.55 270.194 76.68 276.794 70.19C278.774 68.32 281.304 66.23 284.604 65.9C286.804 65.68 289.004 66.45 290.764 67.77C291.204 66.45 292.744 65.57 294.174 65.9C295.714 66.34 296.704 67.88 296.264 69.42C294.614 76.35 291.754 87.24 288.564 98.68C294.724 91.75 301.984 84.27 310.674 76.57C311.884 75.47 313.644 75.58 314.744 76.79ZM268.544 137.18C269.644 135.42 270.854 132.89 272.174 129.7C269.204 134.43 266.894 138.5 265.354 141.58C266.564 140.15 267.664 138.5 268.544 137.18ZM279.984 85.48C282.074 80.97 284.164 76.35 286.144 71.73C285.814 71.62 285.484 71.62 285.264 71.62C283.724 71.84 281.964 73.27 280.864 74.37C275.254 79.87 271.734 90.76 272.724 95.49C272.944 96.26 273.164 96.7 273.494 96.92C273.604 96.81 273.824 96.59 274.154 96.26C276.574 93.29 278.334 89.33 279.984 85.48ZM347.371 77.01C348.031 78.44 347.371 80.2 345.941 80.86C342.091 82.62 336.811 83.94 331.531 84.49C331.311 85.37 331.091 86.36 330.761 87.24C329.331 91.53 327.571 95.27 325.371 98.24C323.501 100.88 321.521 102.53 319.321 103.41C318.441 103.74 317.451 103.96 316.571 103.96C314.261 103.96 312.061 102.86 310.631 101.1C308.211 98.02 308.321 93.62 308.651 91.31C309.421 85.04 310.521 81.96 311.841 78.55C310.631 76.46 310.191 73.93 310.411 71.29C310.631 68.98 311.291 66.67 312.501 64.58C314.041 61.94 316.021 60.07 318.221 59.08C320.971 57.76 324.051 57.87 326.471 59.41C328.451 60.62 330.101 62.82 331.311 65.68C332.521 68.87 333.071 72.72 332.851 76.79C332.851 77.34 332.851 78 332.741 78.55C336.591 78 340.441 77.01 343.521 75.58C344.951 74.92 346.711 75.58 347.371 77.01ZM325.261 85.37C325.371 85.15 325.371 85.04 325.481 84.82C322.951 84.71 320.641 84.38 318.551 83.72C317.781 83.39 317.121 83.06 316.461 82.73C315.581 85.15 314.921 87.68 314.371 91.97C314.041 94.39 314.371 96.48 315.141 97.47C315.801 98.24 316.681 98.24 317.341 98.02C318.331 97.58 319.541 96.48 320.751 94.83C322.511 92.41 324.051 89.22 325.261 85.37ZM327.131 76.46C327.241 73.27 326.911 70.3 325.921 67.88C325.261 66.12 324.381 64.91 323.501 64.36C323.061 64.14 322.511 63.92 322.071 63.92C321.631 63.92 321.081 64.03 320.641 64.25C319.541 64.8 318.441 65.9 317.561 67.44C316.791 68.87 316.241 70.3 316.131 71.73C316.021 73.16 316.351 74.7 316.901 75.69C317.561 76.79 318.661 77.56 320.421 78.11C322.071 78.77 324.381 78.99 326.801 78.99C326.911 78.11 327.021 77.23 327.131 76.46Z" fill="white"/>
</svg>
