<svg width="33" height="33" viewBox="0 0 33 33" fill="none" xmlns="http://www.w3.org/2000/svg">
<path d="M16.5 5.625C16.175 5.625 15.9062 5.51875 15.6937 5.30625C15.4812 5.09375 15.375 4.825 15.375 4.5V1.125C15.375 0.8 15.4812 0.53125 15.6937 0.31875C15.9062 0.10625 16.175 0 16.5 0C16.825 0 17.0938 0.10625 17.3063 0.31875C17.5188 0.53125 17.625 0.8 17.625 1.125V4.5C17.625 4.825 17.5188 5.09375 17.3063 5.30625C17.0938 5.51875 16.825 5.625 16.5 5.625ZM24.1875 8.8125C23.9625 8.5875 23.85 8.325 23.85 8.025C23.85 7.725 23.9625 7.4625 24.1875 7.2375L26.55 4.8375C26.775 4.6125 27.0437 4.5 27.3562 4.5C27.6687 4.5 27.9375 4.6125 28.1625 4.8375C28.3875 5.0625 28.5 5.325 28.5 5.625C28.5 5.925 28.3875 6.1875 28.1625 6.4125L25.7625 8.8125C25.5375 9.0375 25.275 9.15 24.975 9.15C24.675 9.15 24.4125 9.0375 24.1875 8.8125ZM28.5 17.625C28.175 17.625 27.9062 17.5188 27.6937 17.3063C27.4812 17.0938 27.375 16.825 27.375 16.5C27.375 16.175 27.4812 15.9062 27.6937 15.6937C27.9062 15.4812 28.175 15.375 28.5 15.375H31.875C32.2 15.375 32.4688 15.4812 32.6813 15.6937C32.8937 15.9062 33 16.175 33 16.5C33 16.825 32.8937 17.0938 32.6813 17.3063C32.4688 17.5188 32.2 17.625 31.875 17.625H28.5ZM16.5 33C16.175 33 15.9062 32.8937 15.6937 32.6813C15.4812 32.4688 15.375 32.2 15.375 31.875V28.5C15.375 28.175 15.4812 27.9062 15.6937 27.6937C15.9062 27.4812 16.175 27.375 16.5 27.375C16.825 27.375 17.0938 27.4812 17.3063 27.6937C17.5188 27.9062 17.625 28.175 17.625 28.5V31.875C17.625 32.2 17.5188 32.4688 17.3063 32.6813C17.0938 32.8937 16.825 33 16.5 33ZM7.2375 8.8125L4.8375 6.45C4.6125 6.225 4.5 5.95625 4.5 5.64375C4.5 5.33125 4.6125 5.0625 4.8375 4.8375C5.0625 4.6125 5.325 4.5 5.625 4.5C5.925 4.5 6.1875 4.6125 6.4125 4.8375L8.8125 7.2375C9.0375 7.4625 9.15 7.725 9.15 8.025C9.15 8.325 9.0375 8.5875 8.8125 8.8125C8.5875 9.0125 8.31875 9.1125 8.00625 9.1125C7.69375 9.1125 7.4375 9.0125 7.2375 8.8125ZM26.5875 28.1625L24.1875 25.7625C23.9625 25.5375 23.85 25.275 23.85 24.975C23.85 24.675 23.9625 24.4125 24.1875 24.1875C24.3875 23.9875 24.6438 23.8875 24.9563 23.8875C25.2688 23.8875 25.5375 23.9875 25.7625 24.1875L28.2 26.55C28.425 26.775 28.5313 27.0437 28.5188 27.3562C28.5063 27.6687 28.4 27.9375 28.2 28.1625C27.975 28.3875 27.7063 28.5 27.3938 28.5C27.0813 28.5 26.8125 28.3875 26.5875 28.1625ZM1.125 17.625C0.8 17.625 0.53125 17.5188 0.31875 17.3063C0.10625 17.0938 0 16.825 0 16.5C0 16.175 0.10625 15.9062 0.31875 15.6937C0.53125 15.4812 0.8 15.375 1.125 15.375H4.5C4.825 15.375 5.09375 15.4812 5.30625 15.6937C5.51875 15.9062 5.625 16.175 5.625 16.5C5.625 16.825 5.51875 17.0938 5.30625 17.3063C5.09375 17.5188 4.825 17.625 4.5 17.625H1.125ZM4.8375 28.1625C4.6125 27.9375 4.5 27.675 4.5 27.375C4.5 27.075 4.6125 26.8125 4.8375 26.5875L7.2375 24.1875C7.4375 23.9875 7.69375 23.8875 8.00625 23.8875C8.31875 23.8875 8.5875 23.9875 8.8125 24.1875C9.0375 24.4125 9.15 24.6813 9.15 24.9938C9.15 25.3062 9.0375 25.575 8.8125 25.8L6.45 28.1625C6.225 28.3875 5.95625 28.5 5.64375 28.5C5.33125 28.5 5.0625 28.3875 4.8375 28.1625ZM16.5 25.5C14 25.5 11.875 24.625 10.125 22.875C8.375 21.125 7.5 19 7.5 16.5C7.5 14 8.375 11.875 10.125 10.125C11.875 8.375 14 7.5 16.5 7.5C19 7.5 21.125 8.375 22.875 10.125C24.625 11.875 25.5 14 25.5 16.5C25.5 19 24.625 21.125 22.875 22.875C21.125 24.625 19 25.5 16.5 25.5ZM16.5 23.25C18.375 23.25 19.9688 22.5938 21.2812 21.2812C22.5938 19.9688 23.25 18.375 23.25 16.5C23.25 14.625 22.5938 13.0312 21.2812 11.7188C19.9688 10.4062 18.375 9.75 16.5 9.75C14.625 9.75 13.0312 10.4062 11.7188 11.7188C10.4062 13.0312 9.75 14.625 9.75 16.5C9.75 18.375 10.4062 19.9688 11.7188 21.2812C13.0312 22.5938 14.625 23.25 16.5 23.25Z" fill="white"/>
</svg>
