<?xml version="1.0" encoding="UTF-8"?>
<!DOCTYPE svg PUBLIC "-//W3C//DTD SVG 1.1//EN" "http://www.w3.org/Graphics/SVG/1.1/DTD/svg11.dtd">
<!-- Creator: CorelDRAW 2019 (64-Bit) -->
<svg xmlns="http://www.w3.org/2000/svg" xml:space="preserve" width="35.898mm" height="33.6966mm" version="1.1" style="shape-rendering:geometricPrecision; text-rendering:geometricPrecision; image-rendering:optimizeQuality; fill-rule:evenodd; clip-rule:evenodd"
viewBox="0 0 3589.8 3369.66"
 xmlns:xlink="http://www.w3.org/1999/xlink">
 <defs>
  <style type="text/css">
   <![CDATA[
    .fil0 {fill:#3DAFD3}
    .fil1 {fill:white}
    .fil2 {fill:#3DAFD3;fill-rule:nonzero}
   ]]>
  </style>
 </defs>
 <g id="Capa_x0020_1">
  <metadata id="CorelCorpID_0Corel-Layer"/>
  <g id="_2207354896240">
   <path class="fil0" d="M187.01 51.01l1607.89 0c884.34,0 1607.89,723.55 1607.89,1607.89l0 51.87c0,884.34 -723.55,1607.89 -1607.89,1607.89l-1607.89 0 0 -3267.65z"/>
   <g>
    <path class="fil1" d="M2309.48 3233.7c-161.73,55.06 -334.83,84.96 -514.58,84.96l-755.15 0 0 -719.98c0,-349.18 285.69,-634.87 634.86,-634.87l0.01 0c349.18,0 634.86,285.69 634.86,634.87l0 635.02z"/>
    <path class="fil1" d="M1673.34 519.89c357.08,0 646.55,289.47 646.55,646.55 0,357.08 -289.47,646.55 -646.55,646.55 -357.08,0 -646.55,-289.47 -646.55,-646.55 0,-357.08 289.47,-646.55 646.55,-646.55z"/>
   </g>
   <path class="fil2" d="M2018.35 987.86c77.15,0 143.28,28.1 198.39,83.76 55.66,55.66 83.21,122.89 83.21,202.24 0,78.26 -27.55,144.94 -82.11,200.04 -54.55,55.11 -120.13,82.67 -196.73,82.67 -78.26,0 -144.93,-28.11 -200.04,-84.32 -55.66,-56.21 -83.22,-124.54 -83.22,-205 0,-77.15 27.56,-142.73 82.12,-197.29 54.55,-54.55 120.68,-82.1 198.38,-82.1z"/>
  </g>
 </g>
</svg>
