<svg width="193" height="53" viewBox="0 0 193 53" fill="none" xmlns="http://www.w3.org/2000/svg">
<path fill-rule="evenodd" clip-rule="evenodd" d="M0.325516 0.586792H25.8936C39.956 0.586792 51.4617 12.0627 51.4617 26.0887V26.9113C51.4617 40.9373 39.956 52.4132 25.8936 52.4132H0.325516V0.586792V0.586792Z" fill="#3DAFD3"/>
<path fill-rule="evenodd" clip-rule="evenodd" d="M34.0762 51.0658C31.5045 51.9389 28.7519 52.4132 25.8936 52.4132H13.8855V40.9939C13.8855 35.4558 18.4284 30.9247 23.9809 30.9247C29.5334 30.9247 34.0762 35.4558 34.0762 40.9939V51.0658V51.0658Z" fill="white"/>
<path fill-rule="evenodd" clip-rule="evenodd" d="M23.9606 8.02338C29.6387 8.02338 34.2417 12.6145 34.2417 18.2781C34.2417 23.9415 29.6387 28.5326 23.9606 28.5326C18.2823 28.5326 13.6792 23.9415 13.6792 18.2781C13.6792 12.6145 18.2823 8.02338 23.9606 8.02338V8.02338Z" fill="white"/>
<path d="M29.447 15.4456C30.6736 15.4456 31.7253 15.8912 32.6016 16.7741C33.4867 17.6569 33.9249 18.7233 33.9249 19.9817C33.9249 21.2229 33.4867 22.2806 32.6191 23.1546C31.7516 24.0286 30.7087 24.4655 29.4907 24.4655C28.2463 24.4655 27.1861 24.0199 26.3096 23.1284C25.4247 22.2367 24.9864 21.1531 24.9864 19.8769C24.9864 18.6533 25.4247 17.6131 26.2921 16.748C27.1597 15.8826 28.2112 15.4456 29.447 15.4456Z" fill="#3DAFD3"/>
<path d="M154.502 23.1437V23.6291V40.2827C154.502 44.1133 153.718 46.9281 152.175 48.7343C150.092 51.1716 146.964 52.4009 142.774 52.4009C140.546 52.4009 138.669 52.1233 137.141 51.5679C135.621 51.0127 134.336 50.1937 133.294 49.1115C132.833 48.6395 132.424 48.122 132.069 47.5593L137.284 45.1813C137.841 45.8149 138.562 46.2922 139.447 46.6196C140.325 46.9399 141.367 47.1036 142.574 47.1036C144.116 47.1036 145.351 46.8687 146.286 46.3988C147.228 45.9288 147.885 45.3238 148.27 44.5833C148.575 43.9915 148.76 43.0647 148.823 41.7999C148.459 42.0657 148.077 42.3124 147.677 42.5398C145.828 43.5865 143.801 44.1133 141.581 44.1133C138.311 44.1133 135.52 42.9599 133.215 40.6531C130.902 38.339 129.745 35.5338 129.745 32.2373C129.745 28.6986 131.052 25.7511 133.664 23.3942C135.956 21.3437 138.583 20.3185 141.559 20.3185L141.589 20.3187L141.61 20.3185C141.78 20.3185 141.949 20.3226 142.116 20.3305C144.058 20.4153 145.893 20.9451 147.62 21.9205C148.063 22.1697 148.483 22.4393 148.879 22.7297C149.081 21.3732 150.261 20.3242 151.675 20.3242C153.23 20.3242 154.502 21.5928 154.502 23.1437V23.1437ZM141.687 25.3143C139.707 25.3143 138.06 25.9566 136.748 27.2412C135.435 28.5335 134.775 30.1767 134.775 32.1861C134.775 34.2476 135.428 35.9208 136.724 37.1981C138.02 38.4752 139.667 39.1177 141.663 39.1177C143.652 39.1177 145.306 38.4677 146.634 37.1756C147.955 35.8835 148.615 34.2176 148.615 32.1861C148.615 30.1469 147.963 28.4963 146.666 27.2189C145.37 25.9491 143.707 25.3143 141.687 25.3143ZM121.182 29.375C120.804 28.1361 120.061 27.125 118.955 26.349C117.841 25.5731 116.556 25.1886 115.086 25.1886C113.494 25.1886 112.102 25.6228 110.896 26.4986C110.146 27.0398 109.447 28.0008 108.804 29.375H121.182ZM126.857 33.8179H108.547C108.811 35.4342 109.518 36.7229 110.66 37.684C111.802 38.638 113.266 39.1152 115.036 39.1152C117.163 39.1152 118.984 38.3677 120.511 36.8723L125.294 39.1293C124.102 40.8239 122.667 42.0771 121.004 42.8958C119.333 43.7075 117.356 44.1133 115.065 44.1133C111.51 44.1133 108.611 42.9954 106.377 40.7527C104.143 38.517 103.022 35.7118 103.022 32.3441C103.022 28.891 104.143 26.0216 106.377 23.7432C108.611 21.4576 111.41 20.3185 114.786 20.3185C118.363 20.3185 121.275 21.4576 123.517 23.7289C125.758 26.0073 126.879 29.0049 126.879 32.7427L126.857 33.8179V33.8179ZM94.4147 23.2883H100.111V44.1202H94.4147V23.2883V23.2883ZM97.263 20.3246C98.8294 20.3246 100.111 21.632 100.111 23.2299V26.9791H94.4147V23.2299C94.4147 21.632 95.6965 20.3246 97.263 20.3246ZM169.414 20.2582C176.059 20.2582 181.446 25.6308 181.446 32.2584C181.446 38.8858 176.059 44.2586 169.414 44.2586C162.769 44.2586 157.383 38.8858 157.383 32.2584C157.383 25.6308 162.769 20.2582 169.414 20.2582ZM169.406 25.3566C167.426 25.3566 165.779 25.9989 164.467 27.2837C163.155 28.5761 162.494 30.2192 162.494 32.2284C162.494 34.2901 163.147 35.9631 164.443 37.2404C165.74 38.5177 167.386 39.16 169.382 39.16C171.371 39.16 173.025 38.5102 174.353 37.2181C175.674 35.9258 176.334 34.2601 176.334 32.2284C176.334 30.1894 175.682 28.5385 174.385 27.2615C173.089 25.9916 171.426 25.3566 169.406 25.3566ZM91.5646 26.6583C91.5646 24.2039 91.1157 21.9152 90.2178 19.7926C89.3199 17.6697 88.048 15.829 86.4019 14.2699C84.7559 12.7112 82.7939 11.4923 80.5159 10.6133C78.2382 9.73429 75.7358 9.2948 73.009 9.2948H59.9899V44.1211H73.009C75.7358 44.1211 78.2382 43.6734 80.5159 42.7778C82.7939 41.8822 84.7559 40.6552 86.4019 39.0961C88.048 37.5373 89.3199 35.6882 90.2178 33.5489C91.1157 31.4095 91.5646 29.1126 91.5646 26.6583V26.6583ZM85.1299 26.7578C85.1299 28.4908 84.8391 30.0828 84.2571 31.5256C83.6751 32.9767 82.852 34.2288 81.8046 35.2735C80.7571 36.3266 79.4767 37.1392 77.9804 37.7281C76.4757 38.3085 74.813 38.5987 72.9757 38.5987H66.0756V14.8172H72.9757C74.813 14.8172 76.4757 15.1157 77.9804 15.7128C79.4767 16.3183 80.7571 17.1475 81.8046 18.217C82.852 19.2783 83.6751 20.5388 84.2571 21.9898C84.8391 23.4327 85.1299 25.0247 85.1299 26.7578ZM97.255 11.3411C98.3733 11.3411 99.3321 11.7476 100.131 12.5522C100.938 13.3571 101.337 14.3293 101.337 15.4766C101.337 16.6081 100.938 17.5724 100.147 18.3691C99.356 19.166 98.4055 19.5643 97.2949 19.5643C96.1606 19.5643 95.1938 19.158 94.3948 18.3452C93.5881 17.5324 93.1885 16.5445 93.1885 15.3811C93.1885 14.2654 93.5881 13.3173 94.3789 12.5284C95.1699 11.7396 96.1284 11.3411 97.255 11.3411ZM188.592 35.9146C189.711 35.9146 190.669 36.3212 191.468 37.1258C192.275 37.9307 192.674 38.9029 192.674 40.0504C192.674 41.1817 192.275 42.146 191.484 42.9427C190.693 43.7396 189.743 44.1379 188.632 44.1379C187.498 44.1379 186.531 43.7316 185.732 42.9188C184.925 42.106 184.526 41.1181 184.526 39.9547C184.526 38.839 184.925 37.8909 185.716 37.1019C186.507 36.3132 187.466 35.9146 188.592 35.9146V35.9146Z" fill="white"/>
</svg>
